<svg width="1920" height="1080" viewBox="0 0 1920 1080" fill="none" xmlns="http://www.w3.org/2000/svg">
<rect width="1920" height="1080" fill="white"/>
<path d="M585 481.667H351.667V715H585V481.667Z" fill="#1677FF"/>
<path d="M468.333 365V598.333H235C235 536.449 259.583 477.1 303.342 433.342C347.1 389.583 406.449 365 468.333 365Z" fill="#1677FF"/>
<path d="M468.333 481.667H351.667V598.333H468.333V481.667Z" fill="white"/>
<g clip-path="url(#clip0_31_151)">
<path d="M649.103 528.864C649.103 515.104 651.663 503.024 656.783 492.624C662.063 482.224 669.183 474.224 678.143 468.624C687.103 463.024 697.103 460.224 708.143 460.224C717.583 460.224 725.823 462.144 732.863 465.984C740.063 469.824 745.583 474.864 749.423 481.104V462.144H790.463V596.064H749.423V577.104C745.423 583.344 739.823 588.384 732.623 592.224C725.583 596.064 717.343 597.984 707.903 597.984C697.023 597.984 687.103 595.184 678.143 589.584C669.183 583.824 662.063 575.744 656.783 565.344C651.663 554.784 649.103 542.624 649.103 528.864ZM749.423 529.104C749.423 518.864 746.543 510.784 740.783 504.864C735.183 498.944 728.303 495.984 720.143 495.984C711.983 495.984 705.023 498.944 699.263 504.864C693.663 510.624 690.863 518.624 690.863 528.864C690.863 539.104 693.663 547.264 699.263 553.344C705.023 559.264 711.983 562.224 720.143 562.224C728.303 562.224 735.183 559.264 740.783 553.344C746.543 547.424 749.423 539.344 749.423 529.104ZM851.593 481.104C855.593 474.864 861.113 469.824 868.153 465.984C875.193 462.144 883.433 460.224 892.873 460.224C903.913 460.224 913.913 463.024 922.873 468.624C931.833 474.224 938.873 482.224 943.993 492.624C949.273 503.024 951.913 515.104 951.913 528.864C951.913 542.624 949.273 554.784 943.993 565.344C938.873 575.744 931.833 583.824 922.873 589.584C913.913 595.184 903.913 597.984 892.873 597.984C883.593 597.984 875.353 596.064 868.153 592.224C861.113 588.384 855.593 583.424 851.593 577.344V659.904H810.553V462.144H851.593V481.104ZM910.153 528.864C910.153 518.624 907.273 510.624 901.513 504.864C895.913 498.944 888.953 495.984 880.633 495.984C872.473 495.984 865.513 498.944 859.753 504.864C854.153 510.784 851.353 518.864 851.353 529.104C851.353 539.344 854.153 547.424 859.753 553.344C865.513 559.264 872.473 562.224 880.633 562.224C888.793 562.224 895.753 559.264 901.513 553.344C907.273 547.264 910.153 539.104 910.153 528.864ZM1004.88 481.104C1008.88 474.864 1014.4 469.824 1021.44 465.984C1028.48 462.144 1036.72 460.224 1046.16 460.224C1057.2 460.224 1067.2 463.024 1076.16 468.624C1085.12 474.224 1092.16 482.224 1097.28 492.624C1102.56 503.024 1105.2 515.104 1105.2 528.864C1105.2 542.624 1102.56 554.784 1097.28 565.344C1092.16 575.744 1085.12 583.824 1076.16 589.584C1067.2 595.184 1057.2 597.984 1046.16 597.984C1036.88 597.984 1028.64 596.064 1021.44 592.224C1014.4 588.384 1008.88 583.424 1004.88 577.344V659.904H963.844V462.144H1004.88V481.104ZM1063.44 528.864C1063.44 518.624 1060.56 510.624 1054.8 504.864C1049.2 498.944 1042.24 495.984 1033.92 495.984C1025.76 495.984 1018.8 498.944 1013.04 504.864C1007.44 510.784 1004.64 518.864 1004.64 529.104C1004.64 539.344 1007.44 547.424 1013.04 553.344C1018.8 559.264 1025.76 562.224 1033.92 562.224C1042.08 562.224 1049.04 559.264 1054.8 553.344C1060.56 547.264 1063.44 539.104 1063.44 528.864ZM1191.77 561.264V596.064H1170.89C1156.01 596.064 1144.41 592.464 1136.09 585.264C1127.77 577.904 1123.61 565.984 1123.61 549.504V496.224H1107.29V462.144H1123.61V429.504H1164.65V462.144H1191.53V496.224H1164.65V549.984C1164.65 553.984 1165.61 556.864 1167.53 558.624C1169.45 560.384 1172.65 561.264 1177.13 561.264H1191.77ZM1224.23 597.984C1217.03 597.984 1211.11 595.904 1206.47 591.744C1201.99 587.424 1199.75 582.144 1199.75 575.904C1199.75 569.504 1201.99 564.144 1206.47 559.824C1211.11 555.504 1217.03 553.344 1224.23 553.344C1231.27 553.344 1237.03 555.504 1241.51 559.824C1246.15 564.144 1248.47 569.504 1248.47 575.904C1248.47 582.144 1246.15 587.424 1241.51 591.744C1237.03 595.904 1231.27 597.984 1224.23 597.984ZM1255.01 528.864C1255.01 515.104 1257.57 503.024 1262.69 492.624C1267.97 482.224 1275.09 474.224 1284.05 468.624C1293.01 463.024 1303.01 460.224 1314.05 460.224C1322.85 460.224 1330.85 462.064 1338.05 465.744C1345.41 469.424 1351.17 474.384 1355.33 480.624V418.464H1396.37V596.064H1355.33V576.864C1351.49 583.264 1345.97 588.384 1338.77 592.224C1331.73 596.064 1323.49 597.984 1314.05 597.984C1303.01 597.984 1293.01 595.184 1284.05 589.584C1275.09 583.824 1267.97 575.744 1262.69 565.344C1257.57 554.784 1255.01 542.624 1255.01 528.864ZM1355.33 529.104C1355.33 518.864 1352.45 510.784 1346.69 504.864C1341.09 498.944 1334.21 495.984 1326.05 495.984C1317.89 495.984 1310.93 498.944 1305.17 504.864C1299.57 510.624 1296.77 518.624 1296.77 528.864C1296.77 539.104 1299.57 547.264 1305.17 553.344C1310.93 559.264 1317.89 562.224 1326.05 562.224C1334.21 562.224 1341.09 559.264 1346.69 553.344C1352.45 547.424 1355.33 539.344 1355.33 529.104ZM1542.7 526.944C1542.7 530.784 1542.46 534.784 1541.98 538.944H1449.1C1449.74 547.264 1452.38 553.664 1457.02 558.144C1461.82 562.464 1467.66 564.624 1474.54 564.624C1484.78 564.624 1491.9 560.304 1495.9 551.664H1539.58C1537.34 560.464 1533.26 568.384 1527.34 575.424C1521.58 582.464 1514.3 587.984 1505.5 591.984C1496.7 595.984 1486.86 597.984 1475.98 597.984C1462.86 597.984 1451.18 595.184 1440.94 589.584C1430.7 583.984 1422.7 575.984 1416.94 565.584C1411.18 555.184 1408.3 543.024 1408.3 529.104C1408.3 515.184 1411.1 503.024 1416.7 492.624C1422.46 482.224 1430.46 474.224 1440.7 468.624C1450.94 463.024 1462.7 460.224 1475.98 460.224C1488.94 460.224 1500.46 462.944 1510.54 468.384C1520.62 473.824 1528.46 481.584 1534.06 491.664C1539.82 501.744 1542.7 513.504 1542.7 526.944ZM1500.7 516.144C1500.7 509.104 1498.3 503.504 1493.5 499.344C1488.7 495.184 1482.7 493.104 1475.5 493.104C1468.62 493.104 1462.78 495.104 1457.98 499.104C1453.34 503.104 1450.46 508.784 1449.34 516.144H1500.7ZM1614.99 557.664L1644.03 462.144H1687.71L1640.19 596.064H1589.55L1542.03 462.144H1585.95L1614.99 557.664Z" fill="black" fill-opacity="0.88"/>
</g>
<defs>
<clipPath id="clip0_31_151">
<rect width="1040" height="230" fill="white" transform="translate(645 425)"/>
</clipPath>
</defs>
</svg>
